{
    "asset" : {
        "generator" : "Khronos glTF Blender I/O v1.3.48",
        "version" : "2.0"
    },
    "scene" : 0,
    "scenes" : [
        {
            "name" : "Scene",
            "nodes" : [
                0,
                1,
                2,
                3,
                4,
                5,
                6
            ]
        }
    ],
    "nodes" : [
        {
            "mesh" : 0,
            "name" : "Cube"
        },
        {
            "mesh" : 1,
            "name" : "eye 1",
            "scale" : [
                0.45336541533470154,
                0.45336541533470154,
                0.45336541533470154
            ],
            "translation" : [
                -25.6510066986084,
                12.063621520996094,
                93.35200500488281
            ]
        },
        {
            "mesh" : 2,
            "name" : "eye 1.001",
            "scale" : [
                0.45336541533470154,
                0.45336541533470154,
                0.45336541533470154
            ],
            "translation" : [
                21.427446365356445,
                12.063621520996094,
                93.35200500488281
            ]
        },
        {
            "mesh" : 3,
            "name" : "LowPolyFemaleHeadV1",
            "rotation" : [
                0.7071068286895752,
                0,
                0,
                0.7071067094802856
            ],
            "scale" : [
                24.13663673400879,
                24.13663673400879,
                24.13663673400879
            ],
            "translation" : [
                -1.8534682989120483,
                -14.409149169921875,
                74.80488586425781
            ]
        },
        {
            "mesh" : 4,
            "name" : "Polygon_2.1",
            "rotation" : [
                0.7071068286895752,
                0,
                0,
                0.7071067094802856
            ],
            "translation" : [
                -14.65513801574707,
                -206.6846923828125,
                -52.959259033203125
            ]
        },
        {
            "mesh" : 5,
            "name" : "Polygon_2.2",
            "rotation" : [
                0.7071068286895752,
                0,
                0,
                0.7071067094802856
            ],
            "translation" : [
                84.93653106689453,
                -128.337646484375,
                87.80781555175781
            ]
        },
        {
            "mesh" : 6,
            "name" : "Polygon_2.3",
            "rotation" : [
                0.7071068286895752,
                0,
                0,
                0.7071067094802856
            ],
            "translation" : [
                14.886312484741211,
                -206.6846923828125,
                0
            ]
        }
    ],
    "materials" : [
        {
            "doubleSided" : true,
            "emissiveFactor" : [
                0,
                0,
                0
            ],
            "name" : "Material",
            "pbrMetallicRoughness" : {
                "baseColorFactor" : [
                    0.800000011920929,
                    0.800000011920929,
                    0.800000011920929,
                    1
                ],
                "metallicFactor" : 0,
                "roughnessFactor" : 0.4000000059604645
            }
        },
        {
            "doubleSided" : true,
            "emissiveFactor" : [
                0,
                0,
                0
            ],
            "name" : "Material.018",
            "pbrMetallicRoughness" : {
                "baseColorFactor" : [
                    0.800000011920929,
                    0.800000011920929,
                    0.800000011920929,
                    1
                ],
                "metallicFactor" : 1,
                "roughnessFactor" : 0
            }
        },
        {
            "doubleSided" : true,
            "emissiveFactor" : [
                0,
                0,
                0
            ],
            "name" : "Material.020",
            "pbrMetallicRoughness" : {
                "baseColorFactor" : [
                    0.800000011920929,
                    0.800000011920929,
                    0.800000011920929,
                    1
                ],
                "metallicFactor" : 1,
                "roughnessFactor" : 0
            }
        },
        {
            "doubleSided" : true,
            "emissiveFactor" : [
                0,
                0,
                0
            ],
            "name" : "Material.014",
            "pbrMetallicRoughness" : {
                "baseColorFactor" : [
                    0.800000011920929,
                    0.800000011920929,
                    0.800000011920929,
                    1
                ],
                "metallicFactor" : 1,
                "roughnessFactor" : 0
            }
        },
        {
            "doubleSided" : true,
            "emissiveFactor" : [
                0,
                0,
                0
            ],
            "name" : "Polygon_2",
            "pbrMetallicRoughness" : {
                "baseColorFactor" : [
                    0.800000011920929,
                    0.800000011920929,
                    0.800000011920929,
                    1
                ],
                "metallicFactor" : 1,
                "roughnessFactor" : 0
            }
        }
    ],
    "meshes" : [
        {
            "name" : "Cube",
            "primitives" : [
                {
                    "attributes" : {
                        "POSITION" : 0,
                        "NORMAL" : 1,
                        "TEXCOORD_0" : 2
                    },
                    "indices" : 3,
                    "material" : 0
                }
            ]
        },
        {
            "name" : "Sphere.004",
            "primitives" : [
                {
                    "attributes" : {
                        "POSITION" : 4,
                        "NORMAL" : 5,
                        "TEXCOORD_0" : 6
                    },
                    "indices" : 7,
                    "material" : 1
                }
            ]
        },
        {
            "name" : "Sphere.006",
            "primitives" : [
                {
                    "attributes" : {
                        "POSITION" : 8,
                        "NORMAL" : 9,
                        "TEXCOORD_0" : 10
                    },
                    "indices" : 7,
                    "material" : 2
                }
            ]
        },
        {
            "name" : "LowPolyFemaleHeadV1",
            "primitives" : [
                {
                    "attributes" : {
                        "POSITION" : 11,
                        "NORMAL" : 12,
                        "TEXCOORD_0" : 13
                    },
                    "indices" : 14,
                    "material" : 3
                }
            ]
        },
        {
            "name" : "Polygon_2.1",
            "primitives" : [
                {
                    "attributes" : {
                        "POSITION" : 15,
                        "NORMAL" : 16,
                        "TEXCOORD_0" : 17
                    },
                    "indices" : 18,
                    "material" : 4
                }
            ]
        },
        {
            "name" : "Polygon_2.2",
            "primitives" : [
                {
                    "attributes" : {
                        "POSITION" : 19,
                        "NORMAL" : 20,
                        "TEXCOORD_0" : 21
                    },
                    "indices" : 22,
                    "material" : 4
                }
            ]
        },
        {
            "name" : "Polygon_2.3",
            "primitives" : [
                {
                    "attributes" : {
                        "POSITION" : 23,
                        "NORMAL" : 24,
                        "TEXCOORD_0" : 25
                    },
                    "indices" : 26,
                    "material" : 4
                }
            ]
        }
    ],
    "accessors" : [
        {
            "bufferView" : 0,
            "componentType" : 5126,
            "count" : 24,
            "max" : [
                1,
                1,
                1
            ],
            "min" : [
                -1,
                -1,
                -1
            ],
            "type" : "VEC3"
        },
        {
            "bufferView" : 1,
            "componentType" : 5126,
            "count" : 24,
            "type" : "VEC3"
        },
        {
            "bufferView" : 2,
            "componentType" : 5126,
            "count" : 24,
            "type" : "VEC2"
        },
        {
            "bufferView" : 3,
            "componentType" : 5123,
            "count" : 36,
            "type" : "SCALAR"
        },
        {
            "bufferView" : 4,
            "componentType" : 5126,
            "count" : 287,
            "max" : [
                25.00000762939453,
                25,
                25.000015258789062
            ],
            "min" : [
                -25.000001907348633,
                -25,
                -25
            ],
            "type" : "VEC3"
        },
        {
            "bufferView" : 5,
            "componentType" : 5126,
            "count" : 287,
            "type" : "VEC3"
        },
        {
            "bufferView" : 6,
            "componentType" : 5126,
            "count" : 287,
            "type" : "VEC2"
        },
        {
            "bufferView" : 7,
            "componentType" : 5123,
            "count" : 1440,
            "type" : "SCALAR"
        },
        {
            "bufferView" : 8,
            "componentType" : 5126,
            "count" : 287,
            "max" : [
                25.00000762939453,
                25,
                25.000015258789062
            ],
            "min" : [
                -25.000001907348633,
                -25,
                -25
            ],
            "type" : "VEC3"
        },
        {
            "bufferView" : 9,
            "componentType" : 5126,
            "count" : 287,
            "type" : "VEC3"
        },
        {
            "bufferView" : 10,
            "componentType" : 5126,
            "count" : 287,
            "type" : "VEC2"
        },
        {
            "bufferView" : 11,
            "componentType" : 5126,
            "count" : 3866,
            "max" : [
                2.924734592437744,
                2.387152671813965,
                5.134939193725586
            ],
            "min" : [
                -2.9247233867645264,
                -4.797501564025879,
                -4.798606872558594
            ],
            "type" : "VEC3"
        },
        {
            "bufferView" : 12,
            "componentType" : 5126,
            "count" : 3866,
            "type" : "VEC3"
        },
        {
            "bufferView" : 13,
            "componentType" : 5126,
            "count" : 3866,
            "type" : "VEC2"
        },
        {
            "bufferView" : 14,
            "componentType" : 5123,
            "count" : 22128,
            "type" : "SCALAR"
        },
        {
            "bufferView" : 15,
            "componentType" : 5126,
            "count" : 3086,
            "max" : [
                -58.406639099121094,
                211.1228485107422,
                -233.04669189453125
            ],
            "min" : [
                -107.46479034423828,
                48.745445251464844,
                -293.089599609375
            ],
            "type" : "VEC3"
        },
        {
            "bufferView" : 16,
            "componentType" : 5126,
            "count" : 3086,
            "type" : "VEC3"
        },
        {
            "bufferView" : 17,
            "componentType" : 5126,
            "count" : 3086,
            "type" : "VEC2"
        },
        {
            "bufferView" : 18,
            "componentType" : 5123,
            "count" : 18492,
            "type" : "SCALAR"
        },
        {
            "bufferView" : 19,
            "componentType" : 5126,
            "count" : 18436,
            "max" : [
                254.16139221191406,
                196.7301025390625,
                -144.891357421875
            ],
            "min" : [
                -137.31219482421875,
                -138.26454162597656,
                -274.169677734375
            ],
            "type" : "VEC3"
        },
        {
            "bufferView" : 20,
            "componentType" : 5126,
            "count" : 18436,
            "type" : "VEC3"
        },
        {
            "bufferView" : 21,
            "componentType" : 5126,
            "count" : 18436,
            "type" : "VEC2"
        },
        {
            "bufferView" : 22,
            "componentType" : 5123,
            "count" : 110628,
            "type" : "SCALAR"
        },
        {
            "bufferView" : 23,
            "componentType" : 5126,
            "count" : 22074,
            "max" : [
                114.95870208740234,
                280.918701171875,
                -141.31793212890625
            ],
            "min" : [
                -237.42791748046875,
                -167.9947967529297,
                -322.0647277832031
            ],
            "type" : "VEC3"
        },
        {
            "bufferView" : 24,
            "componentType" : 5126,
            "count" : 22074,
            "type" : "VEC3"
        },
        {
            "bufferView" : 25,
            "componentType" : 5126,
            "count" : 22074,
            "type" : "VEC2"
        },
        {
            "bufferView" : 26,
            "componentType" : 5123,
            "count" : 132465,
            "type" : "SCALAR"
        }
    ],
    "bufferViews" : [
        {
            "buffer" : 0,
            "byteLength" : 288,
            "byteOffset" : 0
        },
        {
            "buffer" : 0,
            "byteLength" : 288,
            "byteOffset" : 288
        },
        {
            "buffer" : 0,
            "byteLength" : 192,
            "byteOffset" : 576
        },
        {
            "buffer" : 0,
            "byteLength" : 72,
            "byteOffset" : 768
        },
        {
            "buffer" : 0,
            "byteLength" : 3444,
            "byteOffset" : 840
        },
        {
            "buffer" : 0,
            "byteLength" : 3444,
            "byteOffset" : 4284
        },
        {
            "buffer" : 0,
            "byteLength" : 2296,
            "byteOffset" : 7728
        },
        {
            "buffer" : 0,
            "byteLength" : 2880,
            "byteOffset" : 10024
        },
        {
            "buffer" : 0,
            "byteLength" : 3444,
            "byteOffset" : 12904
        },
        {
            "buffer" : 0,
            "byteLength" : 3444,
            "byteOffset" : 16348
        },
        {
            "buffer" : 0,
            "byteLength" : 2296,
            "byteOffset" : 19792
        },
        {
            "buffer" : 0,
            "byteLength" : 46392,
            "byteOffset" : 22088
        },
        {
            "buffer" : 0,
            "byteLength" : 46392,
            "byteOffset" : 68480
        },
        {
            "buffer" : 0,
            "byteLength" : 30928,
            "byteOffset" : 114872
        },
        {
            "buffer" : 0,
            "byteLength" : 44256,
            "byteOffset" : 145800
        },
        {
            "buffer" : 0,
            "byteLength" : 37032,
            "byteOffset" : 190056
        },
        {
            "buffer" : 0,
            "byteLength" : 37032,
            "byteOffset" : 227088
        },
        {
            "buffer" : 0,
            "byteLength" : 24688,
            "byteOffset" : 264120
        },
        {
            "buffer" : 0,
            "byteLength" : 36984,
            "byteOffset" : 288808
        },
        {
            "buffer" : 0,
            "byteLength" : 221232,
            "byteOffset" : 325792
        },
        {
            "buffer" : 0,
            "byteLength" : 221232,
            "byteOffset" : 547024
        },
        {
            "buffer" : 0,
            "byteLength" : 147488,
            "byteOffset" : 768256
        },
        {
            "buffer" : 0,
            "byteLength" : 221256,
            "byteOffset" : 915744
        },
        {
            "buffer" : 0,
            "byteLength" : 264888,
            "byteOffset" : 1137000
        },
        {
            "buffer" : 0,
            "byteLength" : 264888,
            "byteOffset" : 1401888
        },
        {
            "buffer" : 0,
            "byteLength" : 176592,
            "byteOffset" : 1666776
        },
        {
            "buffer" : 0,
            "byteLength" : 264930,
            "byteOffset" : 1843368
        }
    ],
    "buffers" : [
        {
            "byteLength" : 2108300,
            "uri" : "data:application/octet-stream;base64,"
        }
    ]
}
