{
    "asset" : {
        "generator" : "Khronos glTF Blender I/O v1.3.48",
        "version" : "2.0"
    },
    "scene" : 0,
    "scenes" : [
        {
            "name" : "Scene",
            "nodes" : [
                0,
                1,
                2,
                3,
                4,
                5
            ]
        }
    ],
    "nodes" : [
        {
            "mesh" : 0,
            "name" : "LowPolyFemaleHeadV1",
            "rotation" : [
                0.7071068286895752,
                0,
                0,
                0.7071067094802856
            ],
            "scale" : [
                7.736955642700195,
                7.736955642700195,
                7.736955642700195
            ],
            "translation" : [
                0.30139684677124023,
                3.247426986694336,
                50.04835891723633
            ]
        },
        {
            "mesh" : 1,
            "name" : "eye 1",
            "scale" : [
                0.1453254520893097,
                0.1453254520893097,
                0.1453254520893097
            ],
            "translation" : [
                -7.326860427856445,
                11.733222961425781,
                55.99360656738281
            ]
        },
        {
            "mesh" : 2,
            "name" : "eye 1.001",
            "scale" : [
                0.1453254520893097,
                0.1453254520893097,
                0.1453254520893097
            ],
            "translation" : [
                7.76405143737793,
                11.733222961425781,
                55.99360656738281
            ]
        },
        {
            "mesh" : 3,
            "name" : "Cube",
            "scale" : [
                0.2216135859489441,
                0.2216135859489441,
                0.2216135859489441
            ],
            "translation" : [
                0.6951131820678711,
                6.185111999511719,
                34.69388198852539
            ]
        },
        {
            "name" : "Light",
            "rotation" : [
                0.16907575726509094,
                0.7558803558349609,
                -0.27217137813568115,
                0.570947527885437
            ],
            "scale" : [
                0.2216135859489441,
                0.2216135859489441,
                0.22161364555358887
            ],
            "translation" : [
                1.5984644889831543,
                7.49348783493042,
                34.47106170654297
            ]
        },
        {
            "name" : "Camera",
            "rotation" : [
                0.483536034822464,
                0.33687159419059753,
                -0.20870360732078552,
                0.7804827094078064
            ],
            "scale" : [
                0.2216135859489441,
                0.2216135859489441,
                0.2216135859489441
            ],
            "translation" : [
                2.3259434700012207,
                7.28394079208374,
                36.228729248046875
            ]
        }
    ],
    "materials" : [
        {
            "doubleSided" : true,
            "emissiveFactor" : [
                0,
                0,
                0
            ],
            "name" : "Material.014",
            "pbrMetallicRoughness" : {
                "baseColorFactor" : [
                    0.800000011920929,
                    0.800000011920929,
                    0.800000011920929,
                    1
                ],
                "metallicFactor" : 0,
                "roughnessFactor" : 0.37662336230278015
            }
        },
        {
            "doubleSided" : true,
            "emissiveFactor" : [
                0,
                0,
                0
            ],
            "name" : "Material.018",
            "pbrMetallicRoughness" : {
                "baseColorFactor" : [
                    0.800000011920929,
                    0.800000011920929,
                    0.800000011920929,
                    1
                ],
                "metallicFactor" : 0,
                "roughnessFactor" : 0.48701298236846924
            }
        },
        {
            "doubleSided" : true,
            "emissiveFactor" : [
                0,
                0,
                0
            ],
            "name" : "Material.020",
            "pbrMetallicRoughness" : {
                "baseColorFactor" : [
                    0.800000011920929,
                    0.800000011920929,
                    0.800000011920929,
                    1
                ],
                "metallicFactor" : 0,
                "roughnessFactor" : 0.5
            }
        },
        {
            "doubleSided" : true,
            "emissiveFactor" : [
                0,
                0,
                0
            ],
            "name" : "Material",
            "pbrMetallicRoughness" : {
                "baseColorFactor" : [
                    0.800000011920929,
                    0.800000011920929,
                    0.800000011920929,
                    1
                ],
                "metallicFactor" : 0,
                "roughnessFactor" : 0.4000000059604645
            }
        }
    ],
    "meshes" : [
        {
            "name" : "LowPolyFemaleHeadV1",
            "primitives" : [
                {
                    "attributes" : {
                        "POSITION" : 0,
                        "NORMAL" : 1,
                        "TEXCOORD_0" : 2
                    },
                    "indices" : 3,
                    "material" : 0
                }
            ]
        },
        {
            "name" : "Sphere.004",
            "primitives" : [
                {
                    "attributes" : {
                        "POSITION" : 4,
                        "NORMAL" : 5,
                        "TEXCOORD_0" : 6
                    },
                    "indices" : 7,
                    "material" : 1
                }
            ]
        },
        {
            "name" : "Sphere.006",
            "primitives" : [
                {
                    "attributes" : {
                        "POSITION" : 8,
                        "NORMAL" : 9,
                        "TEXCOORD_0" : 10
                    },
                    "indices" : 7,
                    "material" : 2
                }
            ]
        },
        {
            "name" : "Cube",
            "primitives" : [
                {
                    "attributes" : {
                        "POSITION" : 11,
                        "NORMAL" : 12,
                        "TEXCOORD_0" : 13
                    },
                    "indices" : 14,
                    "material" : 3
                }
            ]
        }
    ],
    "accessors" : [
        {
            "bufferView" : 0,
            "componentType" : 5126,
            "count" : 3866,
            "max" : [
                2.924734592437744,
                2.387152671813965,
                5.134939193725586
            ],
            "min" : [
                -2.9247233867645264,
                -4.797501564025879,
                -4.798606872558594
            ],
            "type" : "VEC3"
        },
        {
            "bufferView" : 1,
            "componentType" : 5126,
            "count" : 3866,
            "type" : "VEC3"
        },
        {
            "bufferView" : 2,
            "componentType" : 5126,
            "count" : 3866,
            "type" : "VEC2"
        },
        {
            "bufferView" : 3,
            "componentType" : 5123,
            "count" : 22128,
            "type" : "SCALAR"
        },
        {
            "bufferView" : 4,
            "componentType" : 5126,
            "count" : 287,
            "max" : [
                25.00000762939453,
                25,
                25.000015258789062
            ],
            "min" : [
                -25.000001907348633,
                -25,
                -25
            ],
            "type" : "VEC3"
        },
        {
            "bufferView" : 5,
            "componentType" : 5126,
            "count" : 287,
            "type" : "VEC3"
        },
        {
            "bufferView" : 6,
            "componentType" : 5126,
            "count" : 287,
            "type" : "VEC2"
        },
        {
            "bufferView" : 7,
            "componentType" : 5123,
            "count" : 1440,
            "type" : "SCALAR"
        },
        {
            "bufferView" : 8,
            "componentType" : 5126,
            "count" : 287,
            "max" : [
                25.00000762939453,
                25,
                25.000015258789062
            ],
            "min" : [
                -25.000001907348633,
                -25,
                -25
            ],
            "type" : "VEC3"
        },
        {
            "bufferView" : 9,
            "componentType" : 5126,
            "count" : 287,
            "type" : "VEC3"
        },
        {
            "bufferView" : 10,
            "componentType" : 5126,
            "count" : 287,
            "type" : "VEC2"
        },
        {
            "bufferView" : 11,
            "componentType" : 5126,
            "count" : 24,
            "max" : [
                1,
                1,
                1
            ],
            "min" : [
                -1,
                -1,
                -1
            ],
            "type" : "VEC3"
        },
        {
            "bufferView" : 12,
            "componentType" : 5126,
            "count" : 24,
            "type" : "VEC3"
        },
        {
            "bufferView" : 13,
            "componentType" : 5126,
            "count" : 24,
            "type" : "VEC2"
        },
        {
            "bufferView" : 14,
            "componentType" : 5123,
            "count" : 36,
            "type" : "SCALAR"
        }
    ],
    "bufferViews" : [
        {
            "buffer" : 0,
            "byteLength" : 46392,
            "byteOffset" : 0
        },
        {
            "buffer" : 0,
            "byteLength" : 46392,
            "byteOffset" : 46392
        },
        {
            "buffer" : 0,
            "byteLength" : 30928,
            "byteOffset" : 92784
        },
        {
            "buffer" : 0,
            "byteLength" : 44256,
            "byteOffset" : 123712
        },
        {
            "buffer" : 0,
            "byteLength" : 3444,
            "byteOffset" : 167968
        },
        {
            "buffer" : 0,
            "byteLength" : 3444,
            "byteOffset" : 171412
        },
        {
            "buffer" : 0,
            "byteLength" : 2296,
            "byteOffset" : 174856
        },
        {
            "buffer" : 0,
            "byteLength" : 2880,
            "byteOffset" : 177152
        },
        {
            "buffer" : 0,
            "byteLength" : 3444,
            "byteOffset" : 180032
        },
        {
            "buffer" : 0,
            "byteLength" : 3444,
            "byteOffset" : 183476
        },
        {
            "buffer" : 0,
            "byteLength" : 2296,
            "byteOffset" : 186920
        },
        {
            "buffer" : 0,
            "byteLength" : 288,
            "byteOffset" : 189216
        },
        {
            "buffer" : 0,
            "byteLength" : 288,
            "byteOffset" : 189504
        },
        {
            "buffer" : 0,
            "byteLength" : 192,
            "byteOffset" : 189792
        },
        {
            "buffer" : 0,
            "byteLength" : 72,
            "byteOffset" : 189984
        }
    ],
    "buffers" : [
        {
            "byteLength" : 190056,
            "uri" : "data:application/octet-stream;base64,"
        }
    ]
}
