{
    "asset" : {
        "generator" : "Khronos glTF Blender I/O v1.3.48",
        "version" : "2.0"
    },
    "scene" : 0,
    "scenes" : [
        {
            "name" : "Scene",
            "nodes" : [
                0,
                1,
                2,
                3
            ]
        }
    ],
    "nodes" : [
        {
            "name" : "Camera",
            "rotation" : [
                0.669093906879425,
                0.007782044820487499,
                -0.007006980944424868,
                0.743104100227356
            ],
            "scale" : [
                33.82896041870117,
                33.828956604003906,
                33.828956604003906
            ],
            "translation" : [
                0.004414249211549759,
                1.4857177734375,
                410.8592834472656
            ]
        },
        {
            "mesh" : 0,
            "name" : "LowPolyFemaleHeadV1",
            "rotation" : [
                0.7071068286895752,
                0,
                0,
                0.7071067094802856
            ],
            "scale" : [
                34.91191864013672,
                34.91191864013672,
                34.91191864013672
            ],
            "translation" : [
                -1.7765896320343018,
                -13.255891799926758,
                69.284912109375
            ]
        },
        {
            "mesh" : 1,
            "name" : "eye 1",
            "scale" : [
                0.6557605862617493,
                0.6557605862617493,
                0.6557605862617493
            ],
            "translation" : [
                -36.198028564453125,
                25.035064697265625,
                96.11199188232422
            ]
        },
        {
            "mesh" : 2,
            "name" : "eye 1.001",
            "scale" : [
                0.6557605862617493,
                0.6557605862617493,
                0.6557605862617493
            ],
            "translation" : [
                31.8975887298584,
                25.035064697265625,
                96.11199188232422
            ]
        }
    ],
    "materials" : [
        {
            "doubleSided" : true,
            "emissiveFactor" : [
                0,
                0,
                0
            ],
            "name" : "Material.014",
            "pbrMetallicRoughness" : {
                "baseColorFactor" : [
                    0.800000011920929,
                    0.800000011920929,
                    0.800000011920929,
                    1
                ],
                "metallicFactor" : 1,
                "roughnessFactor" : 0
            }
        },
        {
            "doubleSided" : true,
            "emissiveFactor" : [
                0,
                0,
                0
            ],
            "name" : "Material.018",
            "pbrMetallicRoughness" : {
                "baseColorFactor" : [
                    0.800000011920929,
                    0.800000011920929,
                    0.800000011920929,
                    1
                ],
                "metallicFactor" : 1,
                "roughnessFactor" : 0
            }
        },
        {
            "doubleSided" : true,
            "emissiveFactor" : [
                0,
                0,
                0
            ],
            "name" : "Material.020",
            "pbrMetallicRoughness" : {
                "baseColorFactor" : [
                    0.800000011920929,
                    0.800000011920929,
                    0.800000011920929,
                    1
                ],
                "metallicFactor" : 1,
                "roughnessFactor" : 0
            }
        }
    ],
    "meshes" : [
        {
            "name" : "LowPolyFemaleHeadV1",
            "primitives" : [
                {
                    "attributes" : {
                        "POSITION" : 0,
                        "NORMAL" : 1,
                        "TEXCOORD_0" : 2
                    },
                    "indices" : 3,
                    "material" : 0
                }
            ]
        },
        {
            "name" : "Sphere.004",
            "primitives" : [
                {
                    "attributes" : {
                        "POSITION" : 4,
                        "NORMAL" : 5,
                        "TEXCOORD_0" : 6
                    },
                    "indices" : 7,
                    "material" : 1
                }
            ]
        },
        {
            "name" : "Sphere.006",
            "primitives" : [
                {
                    "attributes" : {
                        "POSITION" : 8,
                        "NORMAL" : 9,
                        "TEXCOORD_0" : 10
                    },
                    "indices" : 7,
                    "material" : 2
                }
            ]
        }
    ],
    "accessors" : [
        {
            "bufferView" : 0,
            "componentType" : 5126,
            "count" : 3866,
            "max" : [
                2.924734592437744,
                2.387152671813965,
                5.134939193725586
            ],
            "min" : [
                -2.9247233867645264,
                -4.797501564025879,
                -4.798606872558594
            ],
            "type" : "VEC3"
        },
        {
            "bufferView" : 1,
            "componentType" : 5126,
            "count" : 3866,
            "type" : "VEC3"
        },
        {
            "bufferView" : 2,
            "componentType" : 5126,
            "count" : 3866,
            "type" : "VEC2"
        },
        {
            "bufferView" : 3,
            "componentType" : 5123,
            "count" : 22128,
            "type" : "SCALAR"
        },
        {
            "bufferView" : 4,
            "componentType" : 5126,
            "count" : 287,
            "max" : [
                25.00000762939453,
                25,
                25.000015258789062
            ],
            "min" : [
                -25.000001907348633,
                -25,
                -25
            ],
            "type" : "VEC3"
        },
        {
            "bufferView" : 5,
            "componentType" : 5126,
            "count" : 287,
            "type" : "VEC3"
        },
        {
            "bufferView" : 6,
            "componentType" : 5126,
            "count" : 287,
            "type" : "VEC2"
        },
        {
            "bufferView" : 7,
            "componentType" : 5123,
            "count" : 1440,
            "type" : "SCALAR"
        },
        {
            "bufferView" : 8,
            "componentType" : 5126,
            "count" : 287,
            "max" : [
                25.00000762939453,
                25,
                25.000015258789062
            ],
            "min" : [
                -25.000001907348633,
                -25,
                -25
            ],
            "type" : "VEC3"
        },
        {
            "bufferView" : 9,
            "componentType" : 5126,
            "count" : 287,
            "type" : "VEC3"
        },
        {
            "bufferView" : 10,
            "componentType" : 5126,
            "count" : 287,
            "type" : "VEC2"
        }
    ],
    "bufferViews" : [
        {
            "buffer" : 0,
            "byteLength" : 46392,
            "byteOffset" : 0
        },
        {
            "buffer" : 0,
            "byteLength" : 46392,
            "byteOffset" : 46392
        },
        {
            "buffer" : 0,
            "byteLength" : 30928,
            "byteOffset" : 92784
        },
        {
            "buffer" : 0,
            "byteLength" : 44256,
            "byteOffset" : 123712
        },
        {
            "buffer" : 0,
            "byteLength" : 3444,
            "byteOffset" : 167968
        },
        {
            "buffer" : 0,
            "byteLength" : 3444,
            "byteOffset" : 171412
        },
        {
            "buffer" : 0,
            "byteLength" : 2296,
            "byteOffset" : 174856
        },
        {
            "buffer" : 0,
            "byteLength" : 2880,
            "byteOffset" : 177152
        },
        {
            "buffer" : 0,
            "byteLength" : 3444,
            "byteOffset" : 180032
        },
        {
            "buffer" : 0,
            "byteLength" : 3444,
            "byteOffset" : 183476
        },
        {
            "buffer" : 0,
            "byteLength" : 2296,
            "byteOffset" : 186920
        }
    ],
    "buffers" : [
        {
            "byteLength" : 189216,
            "uri" : "data:application/octet-stream;base64,"
        }
    ]
}
