{
    "asset" : {
        "generator" : "Khronos glTF Blender I/O v1.3.48",
        "version" : "2.0"
    },
    "scene" : 0,
    "scenes" : [
        {
            "name" : "Scene",
            "nodes" : [
                0
            ]
        }
    ],
    "nodes" : [
        {
            "mesh" : 0,
            "name" : "Polygon_2.3",
            "rotation" : [
                0.7071068286895752,
                0,
                0,
                0.7071067094802856
            ],
            "translation" : [
                14.886312484741211,
                -206.6846923828125,
                0
            ]
        }
    ],
    "materials" : [
        {
            "doubleSided" : true,
            "emissiveFactor" : [
                0,
                0,
                0
            ],
            "name" : "Polygon_2",
            "pbrMetallicRoughness" : {
                "baseColorFactor" : [
                    0.800000011920929,
                    0.800000011920929,
                    0.800000011920929,
                    1
                ],
                "metallicFactor" : 1,
                "roughnessFactor" : 0
            }
        },
        {
            "doubleSided" : true,
            "emissiveFactor" : [
                0,
                0,
                0
            ],
            "name" : "Material.018",
            "pbrMetallicRoughness" : {
                "baseColorFactor" : [
                    0.800000011920929,
                    0.800000011920929,
                    0.800000011920929,
                    1
                ],
                "metallicFactor" : 1,
                "roughnessFactor" : 0
            }
        },
        {
            "doubleSided" : true,
            "emissiveFactor" : [
                0,
                0,
                0
            ],
            "name" : "Material.020",
            "pbrMetallicRoughness" : {
                "baseColorFactor" : [
                    0.800000011920929,
                    0.800000011920929,
                    0.800000011920929,
                    1
                ],
                "metallicFactor" : 1,
                "roughnessFactor" : 0
            }
        },
        {
            "doubleSided" : true,
            "emissiveFactor" : [
                0,
                0,
                0
            ],
            "name" : "Material.014",
            "pbrMetallicRoughness" : {
                "baseColorFactor" : [
                    0.800000011920929,
                    0.800000011920929,
                    0.800000011920929,
                    1
                ],
                "metallicFactor" : 1,
                "roughnessFactor" : 0
            }
        }
    ],
    "meshes" : [
        {
            "name" : "Polygon_2.3",
            "primitives" : [
                {
                    "attributes" : {
                        "POSITION" : 0,
                        "NORMAL" : 1,
                        "TEXCOORD_0" : 2
                    },
                    "indices" : 3,
                    "material" : 0
                },
                {
                    "attributes" : {
                        "POSITION" : 4,
                        "NORMAL" : 5,
                        "TEXCOORD_0" : 6
                    },
                    "indices" : 7,
                    "material" : 1
                },
                {
                    "attributes" : {
                        "POSITION" : 8,
                        "NORMAL" : 9,
                        "TEXCOORD_0" : 10
                    },
                    "indices" : 7,
                    "material" : 2
                },
                {
                    "attributes" : {
                        "POSITION" : 11,
                        "NORMAL" : 12,
                        "TEXCOORD_0" : 13
                    },
                    "indices" : 14,
                    "material" : 3
                }
            ]
        }
    ],
    "accessors" : [
        {
            "bufferView" : 0,
            "componentType" : 5126,
            "count" : 43594,
            "max" : [
                324.21160888671875,
                284.53790283203125,
                -141.31793212890625
            ],
            "min" : [
                -237.42791748046875,
                -167.9947967529297,
                -352.5167236328125
            ],
            "type" : "VEC3"
        },
        {
            "bufferView" : 1,
            "componentType" : 5126,
            "count" : 43594,
            "type" : "VEC3"
        },
        {
            "bufferView" : 2,
            "componentType" : 5126,
            "count" : 43594,
            "type" : "VEC2"
        },
        {
            "bufferView" : 3,
            "componentType" : 5123,
            "count" : 261585,
            "type" : "SCALAR"
        },
        {
            "bufferView" : 4,
            "componentType" : 5126,
            "count" : 287,
            "max" : [
                -29.20318031311035,
                104.68611145019531,
                -207.41419982910156
            ],
            "min" : [
                -51.871456146240234,
                82.01782989501953,
                -230.0824737548828
            ],
            "type" : "VEC3"
        },
        {
            "bufferView" : 5,
            "componentType" : 5126,
            "count" : 287,
            "type" : "VEC3"
        },
        {
            "bufferView" : 6,
            "componentType" : 5126,
            "count" : 287,
            "type" : "VEC2"
        },
        {
            "bufferView" : 7,
            "componentType" : 5123,
            "count" : 1440,
            "type" : "SCALAR"
        },
        {
            "bufferView" : 8,
            "componentType" : 5126,
            "count" : 287,
            "max" : [
                17.875272750854492,
                104.68611145019531,
                -207.41419982910156
            ],
            "min" : [
                -4.793002128601074,
                82.01782989501953,
                -230.0824737548828
            ],
            "type" : "VEC3"
        },
        {
            "bufferView" : 9,
            "componentType" : 5126,
            "count" : 287,
            "type" : "VEC3"
        },
        {
            "bufferView" : 10,
            "componentType" : 5126,
            "count" : 287,
            "type" : "VEC2"
        },
        {
            "bufferView" : 11,
            "componentType" : 5126,
            "count" : 3866,
            "max" : [
                53.85347366333008,
                132.4226837158203,
                -68.33540344238281
            ],
            "min" : [
                -87.332763671875,
                -40.990684509277344,
                -308.0977783203125
            ],
            "type" : "VEC3"
        },
        {
            "bufferView" : 12,
            "componentType" : 5126,
            "count" : 3866,
            "type" : "VEC3"
        },
        {
            "bufferView" : 13,
            "componentType" : 5126,
            "count" : 3866,
            "type" : "VEC2"
        },
        {
            "bufferView" : 14,
            "componentType" : 5123,
            "count" : 22128,
            "type" : "SCALAR"
        }
    ],
    "bufferViews" : [
        {
            "buffer" : 0,
            "byteLength" : 523128,
            "byteOffset" : 0
        },
        {
            "buffer" : 0,
            "byteLength" : 523128,
            "byteOffset" : 523128
        },
        {
            "buffer" : 0,
            "byteLength" : 348752,
            "byteOffset" : 1046256
        },
        {
            "buffer" : 0,
            "byteLength" : 523170,
            "byteOffset" : 1395008
        },
        {
            "buffer" : 0,
            "byteLength" : 3444,
            "byteOffset" : 1918180
        },
        {
            "buffer" : 0,
            "byteLength" : 3444,
            "byteOffset" : 1921624
        },
        {
            "buffer" : 0,
            "byteLength" : 2296,
            "byteOffset" : 1925068
        },
        {
            "buffer" : 0,
            "byteLength" : 2880,
            "byteOffset" : 1927364
        },
        {
            "buffer" : 0,
            "byteLength" : 3444,
            "byteOffset" : 1930244
        },
        {
            "buffer" : 0,
            "byteLength" : 3444,
            "byteOffset" : 1933688
        },
        {
            "buffer" : 0,
            "byteLength" : 2296,
            "byteOffset" : 1937132
        },
        {
            "buffer" : 0,
            "byteLength" : 46392,
            "byteOffset" : 1939428
        },
        {
            "buffer" : 0,
            "byteLength" : 46392,
            "byteOffset" : 1985820
        },
        {
            "buffer" : 0,
            "byteLength" : 30928,
            "byteOffset" : 2032212
        },
        {
            "buffer" : 0,
            "byteLength" : 44256,
            "byteOffset" : 2063140
        }
    ],
    "buffers" : [
        {
            "byteLength" : 2107396,
            "uri" : "data:application/octet-stream;base64,"
        }
    ]
}
