{
    "asset" : {
        "generator" : "Khronos glTF Blender I/O v1.3.48",
        "version" : "2.0"
    },
    "scene" : 0,
    "scenes" : [
        {
            "name" : "Scene",
            "nodes" : [
                0
            ]
        }
    ],
    "nodes" : [
        {
            "mesh" : 0,
            "name" : "Polygon_2.2",
            "rotation" : [
                0.7071068286895752,
                0,
                0,
                0.7071067094802856
            ],
            "translation" : [
                84.93653106689453,
                -128.337646484375,
                87.80781555175781
            ]
        }
    ],
    "materials" : [
        {
            "doubleSided" : true,
            "emissiveFactor" : [
                0,
                0,
                0
            ],
            "name" : "Polygon_2",
            "pbrMetallicRoughness" : {
                "baseColorFactor" : [
                    0.800000011920929,
                    0.800000011920929,
                    0.800000011920929,
                    1
                ],
                "metallicFactor" : 1,
                "roughnessFactor" : 0
            }
        }
    ],
    "meshes" : [
        {
            "name" : "Polygon_2.2",
            "primitives" : [
                {
                    "attributes" : {
                        "POSITION" : 0,
                        "NORMAL" : 1,
                        "TEXCOORD_0" : 2
                    },
                    "indices" : 3,
                    "material" : 0
                }
            ]
        }
    ],
    "accessors" : [
        {
            "bufferView" : 0,
            "componentType" : 5126,
            "count" : 18436,
            "max" : [
                254.16139221191406,
                196.7301025390625,
                -144.891357421875
            ],
            "min" : [
                -137.31219482421875,
                -138.26454162597656,
                -274.169677734375
            ],
            "type" : "VEC3"
        },
        {
            "bufferView" : 1,
            "componentType" : 5126,
            "count" : 18436,
            "type" : "VEC3"
        },
        {
            "bufferView" : 2,
            "componentType" : 5126,
            "count" : 18436,
            "type" : "VEC2"
        },
        {
            "bufferView" : 3,
            "componentType" : 5123,
            "count" : 110628,
            "type" : "SCALAR"
        }
    ],
    "bufferViews" : [
        {
            "buffer" : 0,
            "byteLength" : 221232,
            "byteOffset" : 0
        },
        {
            "buffer" : 0,
            "byteLength" : 221232,
            "byteOffset" : 221232
        },
        {
            "buffer" : 0,
            "byteLength" : 147488,
            "byteOffset" : 442464
        },
        {
            "buffer" : 0,
            "byteLength" : 221256,
            "byteOffset" : 589952
        }
    ],
    "buffers" : [
        {
            "byteLength" : 811208,
            "uri" : "data:application/octet-stream;base64,"
        }
    ]
}
