{"accessors":[{"bufferView":0,"componentType":5123,"count":22128,"max":[3865],"min":[0],"type":"SCALAR"},{"bufferView":1,"componentType":5126,"count":3866,"max":[2.924734592437744,2.387152671813965,5.134939193725586],"min":[-2.9247233867645264,-4.797501564025879,-4.798606872558594],"type":"VEC3"},{"bufferView":2,"componentType":5126,"count":3866,"max":[0.9995521903038025,0.9999966621398926,0.9999743103981018],"min":[-0.9995521306991577,-0.9998942017555237,-0.9986984133720398],"type":"VEC3"},{"bufferView":3,"componentType":5126,"count":3866,"max":[0.9843990206718445,0.9319429993629456],"min":[0.017083000391721725,0.030873000621795654],"type":"VEC2"},{"bufferView":4,"componentType":5123,"count":18492,"max":[3085],"min":[0],"type":"SCALAR"},{"bufferView":5,"componentType":5126,"count":3086,"max":[-58.406639099121094,211.1228485107422,-233.04669189453125],"min":[-107.46479034423828,48.745445251464844,-293.089599609375],"type":"VEC3"},{"bufferView":6,"componentType":5126,"count":3086,"max":[0.9982678294181824,0.9999566078186035,0.9996152520179749],"min":[-0.9977834224700928,-0.9999204277992249,-0.9993376731872559],"type":"VEC3"},{"bufferView":7,"componentType":5126,"count":3086,"max":[0.6758660078048706,0.3697090148925781],"min":[0.6132259964942932,0.30109500885009766],"type":"VEC2"},{"bufferView":8,"componentType":5123,"count":110628,"max":[18435],"min":[0],"type":"SCALAR"},{"bufferView":9,"componentType":5126,"count":18436,"max":[254.16139221191406,196.7301025390625,-144.891357421875],"min":[-137.31219482421875,-138.26454162597656,-274.169677734375],"type":"VEC3"},{"bufferView":10,"componentType":5126,"count":18436,"max":[0.9992663860321045,0.9999716877937317,0.9991976618766785],"min":[-0.9996031522750854,-0.9999953508377075,-0.9995340704917908],"type":"VEC3"},{"bufferView":11,"componentType":5126,"count":18436,"max":[0.7526029944419861,0.35541200637817383],"min":[0.042681001126766205,0.09083300828933716],"type":"VEC2"},{"bufferView":12,"componentType":5123,"count":132465,"max":[22073],"min":[0],"type":"SCALAR"},{"bufferView":13,"componentType":5126,"count":22074,"max":[114.95870208740234,280.918701171875,-141.31793212890625],"min":[-237.42791748046875,-167.9947967529297,-322.0647277832031],"type":"VEC3"},{"bufferView":14,"componentType":5126,"count":22074,"max":[0.9993999600410461,1.0000001192092896,0.9999979734420776],"min":[-0.99992436170578,-0.9999962449073792,-0.9999938607215881],"type":"VEC3"},{"bufferView":15,"componentType":5126,"count":22074,"max":[0.5598340034484863,0.28059297800064087],"min":[0.5598340034484863,0.28059297800064087],"type":"VEC2"},{"bufferView":16,"componentType":5123,"count":1440,"max":[286],"min":[0],"type":"SCALAR"},{"bufferView":17,"componentType":5126,"count":287,"max":[25.00000762939453,25.0,25.000015258789062],"min":[-25.000001907348633,-25.0,-25.0],"type":"VEC3"},{"bufferView":18,"componentType":5126,"count":287,"max":[1.0,1.0000001192092896,0.9999999403953552],"min":[-1.0,-1.0000001192092896,-0.9999999403953552],"type":"VEC3"},{"bufferView":19,"componentType":5126,"count":287,"max":[1.000000238418579,1.0],"min":[0.0,0.0],"type":"VEC2"},{"bufferView":20,"componentType":5123,"count":1440,"max":[286],"min":[0],"type":"SCALAR"},{"bufferView":21,"componentType":5126,"count":287,"max":[25.00000762939453,25.0,25.000015258789062],"min":[-25.000001907348633,-25.0,-25.0],"type":"VEC3"},{"bufferView":22,"componentType":5126,"count":287,"max":[1.0,1.0000001192092896,0.9999999403953552],"min":[-1.0,-1.0000001192092896,-0.9999999403953552],"type":"VEC3"},{"bufferView":23,"componentType":5126,"count":287,"max":[1.000000238418579,1.0],"min":[0.0,0.0],"type":"VEC2"}],"asset":{"generator":"Soft8Soft Verge3D for Blender add-on","version":"2.0"},"bufferViews":[{"buffer":0,"byteLength":44256,"byteOffset":0,"target":34963},{"buffer":0,"byteLength":46392,"byteOffset":44256,"target":34962},{"buffer":0,"byteLength":46392,"byteOffset":90648,"target":34962},{"buffer":0,"byteLength":30928,"byteOffset":137040,"target":34962},{"buffer":0,"byteLength":36984,"byteOffset":167968,"target":34963},{"buffer":0,"byteLength":37032,"byteOffset":204952,"target":34962},{"buffer":0,"byteLength":37032,"byteOffset":241984,"target":34962},{"buffer":0,"byteLength":24688,"byteOffset":279016,"target":34962},{"buffer":0,"byteLength":221256,"byteOffset":303704,"target":34963},{"buffer":0,"byteLength":221232,"byteOffset":524960,"target":34962},{"buffer":0,"byteLength":221232,"byteOffset":746192,"target":34962},{"buffer":0,"byteLength":147488,"byteOffset":967424,"target":34962},{"buffer":0,"byteLength":264930,"byteOffset":1114912,"target":34963},{"buffer":0,"byteLength":264888,"byteOffset":1379844,"target":34962},{"buffer":0,"byteLength":264888,"byteOffset":1644732,"target":34962},{"buffer":0,"byteLength":176592,"byteOffset":1909620,"target":34962},{"buffer":0,"byteLength":2880,"byteOffset":2086212,"target":34963},{"buffer":0,"byteLength":3444,"byteOffset":2089092,"target":34962},{"buffer":0,"byteLength":3444,"byteOffset":2092536,"target":34962},{"buffer":0,"byteLength":2296,"byteOffset":2095980,"target":34962},{"buffer":0,"byteLength":2880,"byteOffset":2098276,"target":34963},{"buffer":0,"byteLength":3444,"byteOffset":2101156,"target":34962},{"buffer":0,"byteLength":3444,"byteOffset":2104600,"target":34962},{"buffer":0,"byteLength":2296,"byteOffset":2108044,"target":34962}],"buffers":[{"byteLength":2110340,"uri":"test.bin"}],"cameras":[{"extensions":{"S8S_v3d_camera_data":{"controls":"ORBIT","enablePan":true,"moveSpeed":1,"orbitMaxDistance":10000,"orbitMaxPolarAngle":3.141592653589793,"orbitMinDistance":0,"orbitMinPolarAngle":0,"orbitTarget":[-0.0,-0.0,0.0],"rotateSpeed":1,"viewportFitInitialAspect":1,"viewportFitType":"VERTICAL"}},"name":"__DEFAULT__","perspective":{"aspectRatio":1,"yfov":0.7853981633974483,"zfar":1000.0,"znear":0.009999999776482582},"type":"perspective"}],"extensionsUsed":["S8S_v3d_material_data","S8S_v3d_camera_data","S8S_v3d_mesh_data","S8S_v3d_node_data","S8S_v3d_scene_data"],"materials":[{"extensions":{"S8S_v3d_material_data":{"nodeGraph":{"edges":[{"fromNode":0,"fromOutput":0,"toInput":0,"toNode":1}],"nodes":[{"inputs":[[0.800000011920929,0.800000011920929,0.800000011920929,1.0],0.0,[1.0,0.20000000298023224,0.10000000149011612],[0.800000011920929,0.800000011920929,0.800000011920929,1.0],1.0,0.5,0.0,0.0,0.0,0.0,0.0,0.5,0.0,0.029999999329447746,1.4500000476837158,0.0,0.0,[0.0,0.0,0.0,1.0],1.0,[0.0,0.0,0.0],[0.0,0.0,0.0],[0.0,0.0,0.0]],"is_active_output":false,"name":"Principled BSDF","outputs":[[0,0,0,0]],"type":"BSDF_PRINCIPLED_BL"},{"inputs":[[0,0,0,0],[0,0,0,0],[0.0,0.0,0.0]],"is_active_output":true,"name":"Material Output","outputs":[],"type":"OUTPUT_MATERIAL_BL"}]},"useCastShadows":true}},"name":"Material.014"},{"extensions":{"S8S_v3d_material_data":{"nodeGraph":{"edges":[{"fromNode":0,"fromOutput":0,"toInput":0,"toNode":1}],"nodes":[{"inputs":[[0.800000011920929,0.800000011920929,0.800000011920929,1.0],0.0,[1.0,0.20000000298023224,0.10000000149011612],[0.800000011920929,0.800000011920929,0.800000011920929,1.0],1.0,0.5,0.0,0.0,0.0,0.0,0.0,0.5,0.0,0.029999999329447746,1.4500000476837158,0.0,0.0,[0.0,0.0,0.0,1.0],1.0,[0.0,0.0,0.0],[0.0,0.0,0.0],[0.0,0.0,0.0]],"is_active_output":false,"name":"Principled BSDF","outputs":[[0,0,0,0]],"type":"BSDF_PRINCIPLED_BL"},{"inputs":[[0,0,0,0],[0,0,0,0],[0.0,0.0,0.0]],"is_active_output":true,"name":"Material Output","outputs":[],"type":"OUTPUT_MATERIAL_BL"}]},"useCastShadows":true}},"name":"Material.018"},{"extensions":{"S8S_v3d_material_data":{"nodeGraph":{"edges":[{"fromNode":0,"fromOutput":0,"toInput":0,"toNode":1}],"nodes":[{"inputs":[[0.800000011920929,0.800000011920929,0.800000011920929,1.0],0.0,[1.0,0.20000000298023224,0.10000000149011612],[0.800000011920929,0.800000011920929,0.800000011920929,1.0],1.0,0.5,0.0,0.0,0.0,0.0,0.0,0.5,0.0,0.029999999329447746,1.4500000476837158,0.0,0.0,[0.0,0.0,0.0,1.0],1.0,[0.0,0.0,0.0],[0.0,0.0,0.0],[0.0,0.0,0.0]],"is_active_output":false,"name":"Principled BSDF","outputs":[[0,0,0,0]],"type":"BSDF_PRINCIPLED_BL"},{"inputs":[[0,0,0,0],[0,0,0,0],[0.0,0.0,0.0]],"is_active_output":true,"name":"Material Output","outputs":[],"type":"OUTPUT_MATERIAL_BL"}]},"useCastShadows":true}},"name":"Material.020"},{"extensions":{"S8S_v3d_material_data":{"nodeGraph":{"edges":[{"fromNode":0,"fromOutput":0,"toInput":0,"toNode":1}],"nodes":[{"inputs":[[0.800000011920929,0.800000011920929,0.800000011920929,1.0],0.0,[1.0,0.20000000298023224,0.10000000149011612],[0.800000011920929,0.800000011920929,0.800000011920929,1.0],1.0,0.5,0.0,0.0,0.0,0.0,0.0,0.5,0.0,0.029999999329447746,1.4500000476837158,0.0,0.0,[0.0,0.0,0.0,1.0],1.0,[0.0,0.0,0.0],[0.0,0.0,0.0],[0.0,0.0,0.0]],"is_active_output":false,"name":"Principled BSDF","outputs":[[0,0,0,0]],"type":"BSDF_PRINCIPLED_BL"},{"inputs":[[0,0,0,0],[0,0,0,0],[0.0,0.0,0.0]],"is_active_output":true,"name":"Material Output","outputs":[],"type":"OUTPUT_MATERIAL_BL"}]},"useCastShadows":true}},"name":"Polygon_2"},{"extensions":{"S8S_v3d_material_data":{"nodeGraph":{"edges":[{"fromNode":1,"fromOutput":0,"toInput":0,"toNode":0}],"nodes":[{"inputs":[[0,0,0,0],[0,0,0,0]],"is_active_output":true,"name":"World Output","outputs":[],"type":"OUTPUT_WORLD_BL"},{"inputs":[[0.05087608844041824,0.05087608844041824,0.05087608844041824,1.0],1.0],"is_active_output":false,"name":"Background","outputs":[[0,0,0,0]],"type":"BACKGROUND_BL"}]},"useCastShadows":true}},"name":"Verge3D_Environment_World"}],"meshes":[{"extensions":{"S8S_v3d_mesh_data":{"colorLayers":{},"uvLayers":{"UVMap":"TEXCOORD_0"}}},"name":"LowPolyFemaleHeadV1","primitives":[{"attributes":{"NORMAL":2,"POSITION":1,"TEXCOORD_0":3},"indices":0,"material":0,"mode":4}]},{"extensions":{"S8S_v3d_mesh_data":{"colorLayers":{},"uvLayers":{"UVMap":"TEXCOORD_0"}}},"name":"Polygon_2.1","primitives":[{"attributes":{"NORMAL":6,"POSITION":5,"TEXCOORD_0":7},"indices":4,"material":3,"mode":4}]},{"extensions":{"S8S_v3d_mesh_data":{"colorLayers":{},"uvLayers":{"UVMap":"TEXCOORD_0"}}},"name":"Polygon_2.2","primitives":[{"attributes":{"NORMAL":10,"POSITION":9,"TEXCOORD_0":11},"indices":8,"material":3,"mode":4}]},{"extensions":{"S8S_v3d_mesh_data":{"colorLayers":{},"uvLayers":{"UVMap":"TEXCOORD_0"}}},"name":"Polygon_2.3","primitives":[{"attributes":{"NORMAL":14,"POSITION":13,"TEXCOORD_0":15},"indices":12,"material":3,"mode":4}]},{"extensions":{"S8S_v3d_mesh_data":{"colorLayers":{},"uvLayers":{"UVMap":"TEXCOORD_0"}}},"name":"Sphere.004","primitives":[{"attributes":{"NORMAL":18,"POSITION":17,"TEXCOORD_0":19},"indices":16,"material":1,"mode":4}]},{"extensions":{"S8S_v3d_mesh_data":{"colorLayers":{},"uvLayers":{"UVMap":"TEXCOORD_0"}}},"name":"Sphere.006","primitives":[{"attributes":{"NORMAL":22,"POSITION":21,"TEXCOORD_0":23},"indices":20,"material":2,"mode":4}]}],"nodes":[{"extensions":{"S8S_v3d_node_data":{"frustumCulling":true,"groupNames":["Collection"],"hidden":false,"renderOrder":0,"useShadows":true}},"mesh":3,"name":"Polygon_2.3","rotation":[0.7071068286895752,0.0,-0.0,0.7071067094802856],"translation":[14.886312484741211,-206.6846923828125,-0.0]},{"extensions":{"S8S_v3d_node_data":{"frustumCulling":true,"groupNames":["Collection"],"hidden":false,"renderOrder":0,"useShadows":true}},"mesh":1,"name":"Polygon_2.1","rotation":[0.7071068286895752,0.0,-0.0,0.7071067094802856],"translation":[-14.65513801574707,-206.6846923828125,-52.959259033203125]},{"extensions":{"S8S_v3d_node_data":{"frustumCulling":true,"groupNames":["Collection"],"hidden":false,"renderOrder":0,"useShadows":true}},"mesh":2,"name":"Polygon_2.2","rotation":[0.7071068286895752,0.0,-0.0,0.7071067094802856],"translation":[84.93653106689453,-128.337646484375,87.80781555175781]},{"extensions":{"S8S_v3d_node_data":{"frustumCulling":true,"groupNames":["Collection"],"hidden":false,"renderOrder":0,"useShadows":true}},"mesh":5,"name":"eye 1.001","scale":[0.45336541533470154,0.45336541533470154,0.45336541533470154],"translation":[21.427446365356445,12.063621520996094,93.35200500488281]},{"extensions":{"S8S_v3d_node_data":{"frustumCulling":true,"groupNames":["Collection"],"hidden":false,"renderOrder":0,"useShadows":true}},"mesh":4,"name":"eye 1","scale":[0.45336541533470154,0.45336541533470154,0.45336541533470154],"translation":[-25.6510066986084,12.063621520996094,93.35200500488281]},{"extensions":{"S8S_v3d_node_data":{"frustumCulling":true,"groupNames":["Collection"],"hidden":false,"renderOrder":0,"useShadows":true}},"mesh":0,"name":"LowPolyFemaleHeadV1","rotation":[0.7071068286895752,0.0,-0.0,0.7071067094802856],"scale":[24.13663673400879,24.136634826660156,24.136634826660156],"translation":[-1.8534682989120483,-14.409149169921875,74.80488586425781]},{"camera":0,"name":"__DEFAULT_CAMERA__","rotation":[-0.12067586928606033,0.10947133600711823,0.007625889964401722,0.9866079688072205],"scale":[1.0,0.9999998807907104,0.9999999403953552],"translation":[173.68402099609375,194.46034240722656,767.9064331054688]}],"scene":0,"scenes":[{"extensions":{"S8S_v3d_scene_data":{"aaMethod":"AUTO","iblEnvironmentMode":"PMREM","physicallyCorrectLights":true,"pmremMaxTileSize":512,"shadowMap":{"esmDistanceScale":1.0,"renderReverseSided":false,"renderSingleSided":true,"type":"PCFPOISSON"},"toneMapping":{"type":"filmicBlender"},"worldMaterial":4}},"extras":{"animFrameRate":24,"coordSystem":"Z_UP_RIGHT"},"name":"Scene","nodes":[0,2,1,4,3,5,6]}]}
